<svg width="178" height="48" viewBox="0 0 178 48" fill="none" xmlns="http://www.w3.org/2000/svg">
<path fill-rule="evenodd" clip-rule="evenodd" d="M92.35 0.0276375C92.1642 0.0540504 91.4472 0.186314 90.7568 0.292095C85.4465 1.19138 80.1493 4.2198 76.7109 8.33258C74.1221 11.4272 72.436 14.8126 71.5731 18.6477C69.9401 25.9212 71.8386 33.4988 76.7374 39.3308C80.1361 43.3643 85.0747 46.2208 90.5179 47.3184C91.819 47.5829 92.4164 47.6226 95.0052 47.6226C97.594 47.6226 98.1914 47.5829 99.4925 47.3184C107.06 45.7976 113.313 41.0235 116.579 34.2658C121.61 23.8713 118.61 11.5858 109.343 4.64299C106.569 2.56669 103.21 1.0856 99.5721 0.331783C98.5499 0.120216 97.6338 0.0540504 95.4698 0.0144348C93.9431 -0.0120468 92.5359 0.00115967 92.35 0.0276375ZM98.5897 6.29603C105.865 7.77718 111.467 13.5563 112.729 20.8958C112.994 22.4299 112.981 25.2202 112.715 26.8072C112.078 30.5497 110.259 33.9484 107.498 36.6198C104.975 39.0531 102.028 40.6268 98.5499 41.3674C96.6249 41.7773 93.3855 41.7773 91.4605 41.3674C87.9689 40.6136 85.0482 39.0663 82.5125 36.6198C79.751 33.9484 77.9323 30.5497 77.295 26.8072C77.0295 25.2202 77.0162 22.4299 77.2817 20.8958C78.6359 13.0537 84.8225 7.14242 92.8147 6.04478C94.2352 5.84642 96.9833 5.96541 98.5897 6.29603Z" fill="#DF4801"/>
<path fill-rule="evenodd" clip-rule="evenodd" d="M98.6834 9.02911C96.3203 9.80962 94.528 12.0189 92.842 16.2389C92.0719 18.2101 89.8814 21.8613 87.359 25.4597C85.8986 27.5234 85.102 28.5288 83.8806 29.8252C82.8318 30.9497 82.5265 31.5582 82.6459 32.3123C82.792 33.278 83.2567 33.8866 84.2391 34.3892C86.8943 35.7519 91.9392 34.257 96.0282 30.8968C101.856 26.0946 106.463 19.1229 106.45 15.088C106.437 12.9979 104.631 10.4975 102.348 9.41276C101.511 9.01591 101.193 8.93653 100.29 8.89685C99.6393 8.87037 99.002 8.92326 98.6834 9.02911Z" fill="url(#paint0_linear_79_10)"/>
<path fill-rule="evenodd" clip-rule="evenodd" d="M89.5926 10.452C87.6133 11.5406 85.0497 14.0495 83.4159 16.4921C81.8219 18.8948 80.5334 23.873 80.9186 26.1164C81.1312 27.2581 81.357 27.5767 81.968 27.5767C83.4956 27.5767 86.3382 23.7933 89.566 17.4346C90.974 14.6734 91.5983 12.9212 91.678 11.514C91.7311 10.691 91.6913 10.4653 91.5053 10.2795C91.1733 9.93428 90.4028 10.0007 89.5926 10.452Z" fill="url(#paint1_linear_79_10)"/>
<path fill-rule="evenodd" clip-rule="evenodd" d="M107.838 18.4503C106.935 21.8989 103.87 26.378 99.9953 29.9323C97.4608 32.2709 93.7054 35.0324 90.7462 36.7236L89.6182 37.3711L90.8125 37.4768C92.6438 37.6485 96.1736 37.49 97.62 37.1861C100.699 36.5386 102.742 35.508 104.534 33.7243C107.042 31.2271 108.315 27.8182 108.488 23.154C108.554 21.0797 108.382 18.2125 108.143 17.7897C108.103 17.6972 107.957 18.0011 107.838 18.4503Z" fill="url(#paint2_linear_79_10)"/>
<path d="M6.32 32.14C5.29333 32.14 4.37333 31.9733 3.56 31.64C2.74667 31.3067 2.09333 30.8133 1.6 30.16C1.12 29.5067 0.866667 28.72 0.84 27.8H4.48C4.53333 28.32 4.71333 28.72 5.02 29C5.32667 29.2667 5.72667 29.4 6.22 29.4C6.72667 29.4 7.12667 29.2867 7.42 29.06C7.71333 28.82 7.86 28.4933 7.86 28.08C7.86 27.7333 7.74 27.4467 7.5 27.22C7.27333 26.9933 6.98667 26.8067 6.64 26.66C6.30667 26.5133 5.82667 26.3467 5.2 26.16C4.29333 25.88 3.55333 25.6 2.98 25.32C2.40667 25.04 1.91333 24.6267 1.5 24.08C1.08667 23.5333 0.88 22.82 0.88 21.94C0.88 20.6333 1.35333 19.6133 2.3 18.88C3.24667 18.1333 4.48 17.76 6 17.76C7.54667 17.76 8.79333 18.1333 9.74 18.88C10.6867 19.6133 11.1933 20.64 11.26 21.96H7.56C7.53333 21.5067 7.36667 21.1533 7.06 20.9C6.75333 20.6333 6.36 20.5 5.88 20.5C5.46667 20.5 5.13333 20.6133 4.88 20.84C4.62667 21.0533 4.5 21.3667 4.5 21.78C4.5 22.2333 4.71333 22.5867 5.14 22.84C5.56667 23.0933 6.23333 23.3667 7.14 23.66C8.04667 23.9667 8.78 24.26 9.34 24.54C9.91333 24.82 10.4067 25.2267 10.82 25.76C11.2333 26.2933 11.44 26.98 11.44 27.82C11.44 28.62 11.2333 29.3467 10.82 30C10.42 30.6533 9.83333 31.1733 9.06 31.56C8.28667 31.9467 7.37333 32.14 6.32 32.14ZM25.5647 20.84V32H22.1447V30.48C21.798 30.9733 21.3247 31.3733 20.7247 31.68C20.138 31.9733 19.4847 32.12 18.7647 32.12C17.9114 32.12 17.158 31.9333 16.5047 31.56C15.8514 31.1733 15.3447 30.62 14.9847 29.9C14.6247 29.18 14.4447 28.3333 14.4447 27.36V20.84H17.8447V26.9C17.8447 27.6467 18.038 28.2267 18.4247 28.64C18.8114 29.0533 19.3314 29.26 19.9847 29.26C20.6514 29.26 21.178 29.0533 21.5647 28.64C21.9514 28.2267 22.1447 27.6467 22.1447 26.9V20.84H25.5647ZM33.5613 32.16C32.5879 32.16 31.7213 31.9933 30.9613 31.66C30.2013 31.3267 29.6013 30.8733 29.1613 30.3C28.7213 29.7133 28.4746 29.06 28.4213 28.34H31.8013C31.8413 28.7267 32.0213 29.04 32.3413 29.28C32.6613 29.52 33.0546 29.64 33.5213 29.64C33.9479 29.64 34.2746 29.56 34.5013 29.4C34.7413 29.2267 34.8613 29.0067 34.8613 28.74C34.8613 28.42 34.6946 28.1867 34.3613 28.04C34.0279 27.88 33.4879 27.7067 32.7413 27.52C31.9413 27.3333 31.2746 27.14 30.7413 26.94C30.2079 26.7267 29.7479 26.4 29.3613 25.96C28.9746 25.5067 28.7813 24.9 28.7813 24.14C28.7813 23.5 28.9546 22.92 29.3013 22.4C29.6613 21.8667 30.1813 21.4467 30.8613 21.14C31.5546 20.8333 32.3746 20.68 33.3213 20.68C34.7213 20.68 35.8213 21.0267 36.6213 21.72C37.4346 22.4133 37.9013 23.3333 38.0213 24.48H34.8613C34.8079 24.0933 34.6346 23.7867 34.3413 23.56C34.0613 23.3333 33.6879 23.22 33.2213 23.22C32.8213 23.22 32.5146 23.3 32.3013 23.46C32.0879 23.6067 31.9813 23.8133 31.9813 24.08C31.9813 24.4 32.1479 24.64 32.4813 24.8C32.8279 24.96 33.3613 25.12 34.0813 25.28C34.9079 25.4933 35.5813 25.7067 36.1013 25.92C36.6213 26.12 37.0746 26.4533 37.4613 26.92C37.8613 27.3733 38.0679 27.9867 38.0813 28.76C38.0813 29.4133 37.8946 30 37.5213 30.52C37.1613 31.0267 36.6346 31.4267 35.9413 31.72C35.2613 32.0133 34.4679 32.16 33.5613 32.16ZM48.0336 20.72C49.3136 20.72 50.3403 21.1467 51.1136 22C51.8869 22.84 52.2736 24 52.2736 25.48V32H48.8736V25.94C48.8736 25.1933 48.6803 24.6133 48.2936 24.2C47.9069 23.7867 47.3869 23.58 46.7336 23.58C46.0803 23.58 45.5603 23.7867 45.1736 24.2C44.7869 24.6133 44.5936 25.1933 44.5936 25.94V32H41.1736V17.2H44.5936V22.34C44.9403 21.8467 45.4136 21.4533 46.0136 21.16C46.6136 20.8667 47.2869 20.72 48.0336 20.72ZM57.3702 19.68C56.7702 19.68 56.2768 19.5067 55.8902 19.16C55.5168 18.8 55.3302 18.36 55.3302 17.84C55.3302 17.3067 55.5168 16.8667 55.8902 16.52C56.2768 16.16 56.7702 15.98 57.3702 15.98C57.9568 15.98 58.4368 16.16 58.8102 16.52C59.1968 16.8667 59.3902 17.3067 59.3902 17.84C59.3902 18.36 59.1968 18.8 58.8102 19.16C58.4368 19.5067 57.9568 19.68 57.3702 19.68ZM59.0702 20.84V32H55.6502V20.84H59.0702Z" fill="#DF4801"/>
<path d="M146.14 17.96V32H142.72V23.58L139.58 32H136.82L133.66 23.56V32H130.24V17.96H134.28L138.22 27.68L142.12 17.96H146.14ZM154.679 32.16C153.586 32.16 152.599 31.9267 151.719 31.46C150.853 30.9933 150.166 30.3267 149.659 29.46C149.166 28.5933 148.919 27.58 148.919 26.42C148.919 25.2733 149.173 24.2667 149.679 23.4C150.186 22.52 150.879 21.8467 151.759 21.38C152.639 20.9133 153.626 20.68 154.719 20.68C155.813 20.68 156.799 20.9133 157.679 21.38C158.559 21.8467 159.253 22.52 159.759 23.4C160.266 24.2667 160.519 25.2733 160.519 26.42C160.519 27.5667 160.259 28.58 159.739 29.46C159.233 30.3267 158.533 30.9933 157.639 31.46C156.759 31.9267 155.773 32.16 154.679 32.16ZM154.679 29.2C155.333 29.2 155.886 28.96 156.339 28.48C156.806 28 157.039 27.3133 157.039 26.42C157.039 25.5267 156.813 24.84 156.359 24.36C155.919 23.88 155.373 23.64 154.719 23.64C154.053 23.64 153.499 23.88 153.059 24.36C152.619 24.8267 152.399 25.5133 152.399 26.42C152.399 27.3133 152.613 28 153.039 28.48C153.479 28.96 154.026 29.2 154.679 29.2ZM166.754 22.7C167.154 22.0867 167.654 21.6067 168.254 21.26C168.854 20.9 169.52 20.72 170.254 20.72V24.34H169.314C168.46 24.34 167.82 24.5267 167.394 24.9C166.967 25.26 166.754 25.9 166.754 26.82V32H163.334V20.84H166.754V22.7ZM174.608 19.68C174.008 19.68 173.515 19.5067 173.128 19.16C172.755 18.8 172.568 18.36 172.568 17.84C172.568 17.3067 172.755 16.8667 173.128 16.52C173.515 16.16 174.008 15.98 174.608 15.98C175.195 15.98 175.675 16.16 176.048 16.52C176.435 16.8667 176.628 17.3067 176.628 17.84C176.628 18.36 176.435 18.8 176.048 19.16C175.675 19.5067 175.195 19.68 174.608 19.68ZM176.308 20.84V32H172.888V20.84H176.308Z" fill="#DF4801"/>
<defs>
<linearGradient id="paint0_linear_79_10" x1="102.864" y1="18.3118" x2="91.6599" y2="33.309" gradientUnits="userSpaceOnUse">
<stop stop-color="#DF4801"/>
<stop offset="0.5" stop-color="#CF6E41"/>
<stop offset="1" stop-color="#DF4801"/>
</linearGradient>
<linearGradient id="paint1_linear_79_10" x1="90.0671" y1="16.4076" x2="82.235" y2="23.493" gradientUnits="userSpaceOnUse">
<stop stop-color="#DF4801"/>
<stop offset="0.5" stop-color="#CF6E41"/>
<stop offset="1" stop-color="#DF4801"/>
</linearGradient>
<linearGradient id="paint2_linear_79_10" x1="105.661" y1="24.9385" x2="97.245" y2="36.6768" gradientUnits="userSpaceOnUse">
<stop stop-color="#DF4801"/>
<stop offset="0.5" stop-color="#CF6E41"/>
<stop offset="1" stop-color="#DF4801"/>
</linearGradient>
</defs>
</svg>
