<svg width="48" height="48" viewBox="0 0 48 48" fill="none" xmlns="http://www.w3.org/2000/svg">
<path fill-rule="evenodd" clip-rule="evenodd" d="M21.35 0.0276375C21.1642 0.0540504 20.4472 0.186314 19.7568 0.292095C14.4465 1.19138 9.14933 4.2198 5.71087 8.33258C3.12206 11.4272 1.43601 14.8126 0.573063 18.6477C-1.0599 25.9212 0.83857 33.4988 5.73742 39.3308C9.13607 43.3643 14.0747 46.2208 19.5179 47.3184C20.819 47.5829 21.4164 47.6226 24.0052 47.6226C26.594 47.6226 27.1914 47.5829 28.4925 47.3184C36.0598 45.7976 42.3128 41.0235 45.5787 34.2658C50.6103 23.8713 47.6099 11.5858 38.3433 4.64299C35.5685 2.56669 32.2098 1.0856 28.5721 0.331783C27.5499 0.120216 26.6338 0.0540504 24.4698 0.0144348C22.9431 -0.0120468 21.5359 0.00115967 21.35 0.0276375ZM27.5897 6.29603C34.8649 7.77718 40.4674 13.5563 41.7286 20.8958C41.9941 22.4299 41.9809 25.2202 41.7154 26.8072C41.0781 30.5497 39.2593 33.9484 36.4979 36.6198C33.9755 39.0531 31.0282 40.6268 27.5499 41.3674C25.6249 41.7773 22.3855 41.7773 20.4605 41.3674C16.9689 40.6136 14.0482 39.0663 11.5125 36.6198C8.75104 33.9484 6.93226 30.5497 6.295 26.8072C6.02949 25.2202 6.01621 22.4299 6.28174 20.8958C7.63592 13.0537 13.8225 7.14242 21.8147 6.04478C23.2352 5.84642 25.9833 5.96541 27.5897 6.29603Z" fill="#DF4801"/>
<path fill-rule="evenodd" clip-rule="evenodd" d="M27.6834 9.02911C25.3203 9.80962 23.528 12.0189 21.842 16.2389C21.0719 18.2101 18.8814 21.8613 16.359 25.4597C14.8986 27.5234 14.102 28.5288 12.8806 29.8252C11.8318 30.9497 11.5265 31.5582 11.6459 32.3123C11.792 33.278 12.2567 33.8866 13.2391 34.3892C15.8943 35.7519 20.9392 34.257 25.0282 30.8968C30.8563 26.0946 35.4631 19.1229 35.4499 15.088C35.4366 12.9979 33.6311 10.4975 31.3476 9.41276C30.5112 9.01591 30.1926 8.93653 29.2898 8.89685C28.6393 8.87037 28.002 8.92326 27.6834 9.02911Z" fill="url(#paint0_linear_75_4)"/>
<path fill-rule="evenodd" clip-rule="evenodd" d="M18.5926 10.452C16.6133 11.5406 14.0497 14.0495 12.4159 16.4921C10.8219 18.8948 9.53341 23.873 9.91863 26.1164C10.1312 27.2581 10.357 27.5767 10.968 27.5767C12.4956 27.5767 15.3382 23.7933 18.566 17.4346C19.974 14.6734 20.5983 12.9212 20.678 11.514C20.7311 10.691 20.6913 10.4653 20.5053 10.2795C20.1733 9.93428 19.4028 10.0007 18.5926 10.452Z" fill="url(#paint1_linear_75_4)"/>
<path fill-rule="evenodd" clip-rule="evenodd" d="M36.8378 18.4503C35.9354 21.8989 32.8701 26.378 28.9953 29.9323C26.4608 32.2709 22.7054 35.0324 19.7462 36.7236L18.6182 37.3711L19.8125 37.4768C21.6438 37.6485 25.1736 37.49 26.62 37.1861C29.6986 36.5386 31.7421 35.508 33.5336 33.7243C36.0416 31.2271 37.3155 27.8182 37.4881 23.154C37.5544 21.0797 37.3819 18.2125 37.143 17.7897C37.1032 17.6972 36.9572 18.0011 36.8378 18.4503Z" fill="url(#paint2_linear_75_4)"/>
<defs>
<linearGradient id="paint0_linear_75_4" x1="31.8644" y1="18.3118" x2="20.6599" y2="33.309" gradientUnits="userSpaceOnUse">
<stop stop-color="#DF4801"/>
<stop offset="0.5" stop-color="#CF6E41"/>
<stop offset="1" stop-color="#DF4801"/>
</linearGradient>
<linearGradient id="paint1_linear_75_4" x1="19.0671" y1="16.4076" x2="11.235" y2="23.493" gradientUnits="userSpaceOnUse">
<stop stop-color="#DF4801"/>
<stop offset="0.5" stop-color="#CF6E41"/>
<stop offset="1" stop-color="#DF4801"/>
</linearGradient>
<linearGradient id="paint2_linear_75_4" x1="34.6608" y1="24.9385" x2="26.245" y2="36.6768" gradientUnits="userSpaceOnUse">
<stop stop-color="#DF4801"/>
<stop offset="0.5" stop-color="#CF6E41"/>
<stop offset="1" stop-color="#DF4801"/>
</linearGradient>
</defs>
</svg>
